# xmcd CD database file
#
# Track frame offsets:
#	150
#	21201
#	42282
#	64676
#	67631
#	83396
#	106632
#	123709
#	142297
#	160736
#	165752
#	184724
#	200782
#	224468
#	227468
#	250963
#	268909
#
# Disc length: 3858 seconds
#
# Revision: 0
# Processed by: cddbd v1.5.2PL0 Copyright (c) Steve Scherf et al.
# Submitted via: CDex 1.51
#
DISCID=e50f1011
DTITLE=El mecanico del swing - Laq verbena klandestina
DYEAR=2002
DGENRE=Blues
TTITLE0=No te quedes fue
TTITLE1=Tango toda la vida
TTITLE2=Chotix a las verbenas klandestinas
TTITLE3=Chotix violin
TTITLE4=La tabermundi
TTITLE5=La chica de los coches de choque
TTITLE6=El tiempo y la pluma
TTITLE7=Lejos de ti
TTITLE8=Quien pierde un sueño ierde la cabeza
TTITLE9=Hombre orquesta
TTITLE10=Republica celestial
TTITLE11=Marineros de secano
TTITLE12=A la puta calle
TTITLE13=Rafagas de amor
TTITLE14=Me voy... y los fuegos artificiales
TTITLE15=Caseta en construccion uno
TTITLE16=Caseta en contruccion dos
EXTD=YEAR: 2002
EXTT0=
EXTT1=
EXTT2=
EXTT3=
EXTT4=
EXTT5=
EXTT6=
EXTT7=
EXTT8=
EXTT9=
EXTT10=
EXTT11=
EXTT12=
EXTT13=
EXTT14=
EXTT15=
EXTT16=
PLAYORDER=
